<svg width="92" height="98" viewBox="0 0 46 49" fill="none" xmlns="http://www.w3.org/2000/svg">
    <path d="M37.9872 17.1736L24.5124 9.50024V23.9791L37.9872 31.0587V17.1736Z" fill="#B8F5FF"/>
    <path d="M21.9631 23.7507V9.50024L8.48831 16.8082V31.0587L21.9631 23.7507Z" fill="#B8F5FF"/>
    <path d="M23.0557 26.3086L36.5305 33.2511L23.0557 40.5591L10.0817 33.2511L23.0557 26.3086Z" fill="#B8F5FF"/>
    <path d="M23.0556 0L2.29721 11.3273L7.39577 14.2505L23.0556 5.84635L39.0797 14.2505L44.1783 11.3273L23.0556 0Z" fill="#B8F5FF"/>
    <path d="M45.635 36.5397V14.2505L40.5364 16.8083V33.9819L24.5124 42.7514L24.8766 48.2324L45.635 36.5397Z" fill="#B8F5FF"/>
    <path d="M21.9631 48.5977V42.7514L5.93908 33.9818V16.8082L0.840515 13.885V36.905L21.9631 48.5977Z" fill="#B8F5FF"/>
</svg>